<mxfile host="65bd71144e">
    <diagram id="qo3MZ57L1UOxiRrNva4J" name="Success">
        <mxGraphModel dx="1386" dy="792" grid="1" gridSize="10" guides="1" tooltips="1" connect="1" arrows="1" fold="1" page="1" pageScale="1" pageWidth="827" pageHeight="1169" math="0" shadow="0">
            <root>
                <mxCell id="0"/>
                <mxCell id="1" parent="0"/>
                <mxCell id="6" value="" style="shape=umlLifeline;participant=umlActor;perimeter=lifelinePerimeter;whiteSpace=wrap;html=1;container=1;collapsible=0;recursiveResize=0;verticalAlign=top;spacingTop=36;outlineConnect=0;" vertex="1" parent="1">
                    <mxGeometry x="50" y="120" width="20" height="480" as="geometry"/>
                </mxCell>
                <mxCell id="7" value="KonstrainR-Core" style="shape=umlLifeline;perimeter=lifelinePerimeter;whiteSpace=wrap;html=1;container=1;collapsible=0;recursiveResize=0;outlineConnect=0;" vertex="1" parent="1">
                    <mxGeometry x="160" y="120" width="100" height="480" as="geometry"/>
                </mxCell>
                <mxCell id="17" value="PersistRawDsl" style="html=1;verticalAlign=bottom;endArrow=block;" edge="1" parent="7" target="15">
                    <mxGeometry width="80" relative="1" as="geometry">
                        <mxPoint x="50" y="120" as="sourcePoint"/>
                        <mxPoint x="130" y="120" as="targetPoint"/>
                        <Array as="points">
                            <mxPoint x="140" y="120"/>
                        </Array>
                    </mxGeometry>
                </mxCell>
                <mxCell id="26" value="" style="html=1;points=[];perimeter=orthogonalPerimeter;" vertex="1" parent="7">
                    <mxGeometry x="45" y="200" width="10" height="80" as="geometry"/>
                </mxCell>
                <mxCell id="45" value="" style="html=1;points=[];perimeter=orthogonalPerimeter;" vertex="1" parent="7">
                    <mxGeometry x="45" y="400" width="10" height="50" as="geometry"/>
                </mxCell>
                <mxCell id="46" value="loadJar" style="edgeStyle=orthogonalEdgeStyle;html=1;align=left;spacingLeft=2;endArrow=block;rounded=0;entryX=1;entryY=0;" edge="1" target="45" parent="7">
                    <mxGeometry relative="1" as="geometry">
                        <mxPoint x="50" y="380" as="sourcePoint"/>
                        <Array as="points">
                            <mxPoint x="80" y="380"/>
                        </Array>
                    </mxGeometry>
                </mxCell>
                <mxCell id="8" value="Konstrainer-Builder" style="shape=umlLifeline;perimeter=lifelinePerimeter;whiteSpace=wrap;html=1;container=1;collapsible=0;recursiveResize=0;outlineConnect=0;" vertex="1" parent="1">
                    <mxGeometry x="670" y="240" width="115" height="320" as="geometry"/>
                </mxCell>
                <mxCell id="39" value="" style="html=1;points=[];perimeter=orthogonalPerimeter;" vertex="1" parent="8">
                    <mxGeometry x="50" y="190" width="10" height="40" as="geometry"/>
                </mxCell>
                <mxCell id="40" value="buildDsl" style="edgeStyle=orthogonalEdgeStyle;html=1;align=left;spacingLeft=2;endArrow=block;rounded=0;entryX=1;entryY=0;" edge="1" target="39" parent="8">
                    <mxGeometry x="0.0667" y="5" relative="1" as="geometry">
                        <mxPoint x="55" y="170" as="sourcePoint"/>
                        <Array as="points">
                            <mxPoint x="85" y="170"/>
                        </Array>
                        <mxPoint as="offset"/>
                    </mxGeometry>
                </mxCell>
                <mxCell id="43" value="" style="shape=umlDestroy;dashed=0;" vertex="1" parent="8">
                    <mxGeometry x="37.5" y="280" width="40" height="40" as="geometry"/>
                </mxCell>
                <mxCell id="9" value="k8s api" style="shape=umlLifeline;perimeter=lifelinePerimeter;whiteSpace=wrap;html=1;container=1;collapsible=0;recursiveResize=0;outlineConnect=0;" vertex="1" parent="1">
                    <mxGeometry x="520" y="120" width="100" height="480" as="geometry"/>
                </mxCell>
                <mxCell id="15" value="Konstrainer-Db" style="shape=umlLifeline;perimeter=lifelinePerimeter;whiteSpace=wrap;html=1;container=1;collapsible=0;recursiveResize=0;outlineConnect=0;" vertex="1" parent="1">
                    <mxGeometry x="340" y="120" width="110" height="480" as="geometry"/>
                </mxCell>
                <mxCell id="19" value="SpawnBuilderJob" style="html=1;verticalAlign=bottom;endArrow=block;" edge="1" parent="15" target="9">
                    <mxGeometry width="80" relative="1" as="geometry">
                        <mxPoint x="-130" y="140" as="sourcePoint"/>
                        <mxPoint x="54.5" y="140" as="targetPoint"/>
                        <Array as="points">
                            <mxPoint x="-40" y="140"/>
                        </Array>
                    </mxGeometry>
                </mxCell>
                <mxCell id="16" value="Upload DSL instance Kt file" style="html=1;verticalAlign=bottom;endArrow=block;" edge="1" parent="1" source="6" target="7">
                    <mxGeometry x="-0.06" width="80" relative="1" as="geometry">
                        <mxPoint x="370" y="370" as="sourcePoint"/>
                        <mxPoint x="210" y="370" as="targetPoint"/>
                        <Array as="points">
                            <mxPoint x="100" y="200"/>
                            <mxPoint x="180" y="200"/>
                        </Array>
                        <mxPoint as="offset"/>
                    </mxGeometry>
                </mxCell>
                <mxCell id="25" value="&amp;lt;&amp;lt;Spawn&amp;gt;&amp;gt;" style="endArrow=open;startArrow=none;endFill=0;startFill=0;endSize=8;html=1;verticalAlign=bottom;dashed=1;labelBackgroundColor=none;" edge="1" parent="1" source="9" target="8">
                    <mxGeometry x="-0.3484" width="160" relative="1" as="geometry">
                        <mxPoint x="580" y="300" as="sourcePoint"/>
                        <mxPoint x="610" y="300" as="targetPoint"/>
                        <Array as="points">
                            <mxPoint x="670" y="280"/>
                        </Array>
                        <mxPoint x="1" as="offset"/>
                    </mxGeometry>
                </mxCell>
                <mxCell id="27" value="FetchRawDsl" style="html=1;verticalAlign=bottom;endArrow=block;entryX=0;entryY=0;" edge="1" target="26" parent="1">
                    <mxGeometry relative="1" as="geometry">
                        <mxPoint x="719.5" y="320" as="sourcePoint"/>
                    </mxGeometry>
                </mxCell>
                <mxCell id="28" value="return :rawDSL" style="html=1;verticalAlign=bottom;endArrow=open;dashed=1;endSize=8;exitX=0;exitY=0.95;" edge="1" source="26" parent="1">
                    <mxGeometry relative="1" as="geometry">
                        <mxPoint x="724.5" y="396" as="targetPoint"/>
                    </mxGeometry>
                </mxCell>
                <mxCell id="44" value="UploadDslJar" style="html=1;verticalAlign=bottom;endArrow=block;" edge="1" parent="1" source="8" target="7">
                    <mxGeometry x="0.001" width="80" relative="1" as="geometry">
                        <mxPoint x="630" y="490" as="sourcePoint"/>
                        <mxPoint x="610" y="660" as="targetPoint"/>
                        <Array as="points">
                            <mxPoint x="500" y="490"/>
                        </Array>
                        <mxPoint as="offset"/>
                    </mxGeometry>
                </mxCell>
                <mxCell id="47" value="Persist metadata of DSL instance,&lt;br&gt;mark DSL as ready" style="html=1;verticalAlign=bottom;endArrow=block;" edge="1" parent="1" target="15">
                    <mxGeometry x="-0.0244" y="-38" width="80" relative="1" as="geometry">
                        <mxPoint x="210" y="560" as="sourcePoint"/>
                        <mxPoint x="290" y="540" as="targetPoint"/>
                        <Array as="points">
                            <mxPoint x="300" y="560"/>
                        </Array>
                        <mxPoint as="offset"/>
                    </mxGeometry>
                </mxCell>
            </root>
        </mxGraphModel>
    </diagram>
</mxfile>